<svg xmlns="http://www.w3.org/2000/svg" x="0px" y="0px" viewBox="0 0 511.999 511.999">
	<path d="M173.321,263.762l-78.757-58.255c-8.931-6.607-10.816-19.202-4.209-28.134
	c6.607-8.931,19.202-10.816,28.134-4.209l70.087,51.842l65.423-23.689c10.446-3.782,21.979,1.619,25.762,12.065
	c3.782,10.445-1.619,21.98-12.066,25.762l-75.563,27.36C185.826,268.786,178.763,267.787,173.321,263.762z" style="fill:#586270;"/>
	<path d="M279.76,213.382c-3.783-10.445-15.315-15.847-25.762-12.065l13.696,37.826
	C278.139,235.361,283.542,223.827,279.76,213.382z" style="fill:#586270;"/>
	<polygon points="267.694,239.143 259.13,242.243 245.57,204.368 253.998,201.316" style="fill:#24292e;"/>
	<path d="M477.314,486.724c-7.758,0-14.048-6.289-14.048-14.048V301.19H291.558v171.486
	c0,7.758-6.289,14.048-14.048,14.048c-7.758,0-14.048-6.289-14.048-14.048V287.143c0-7.758,6.289-14.048,14.048-14.048h199.804
	c7.758,0,14.048,6.289,14.048,14.048v185.534C491.361,480.435,485.072,486.724,477.314,486.724z" style="fill:#a56a43;"/>
	<path d="M490.928,266.07c-16.973,0-217.96,0-227.032,0c-11.637,0-21.071,9.434-21.071,21.072
	c0,11.637,9.434,21.072,21.071,21.072c9.176,0,217.446,0,227.032,0c11.637,0,21.072-9.434,21.072-21.072
	C511.999,275.504,502.565,266.07,490.928,266.07z" style="fill:#a56a43;"/>
	<path d="M339.524,266.259h-66.766c-7.758,0-14.048-6.289-14.048-14.048s6.289-14.048,14.048-14.048h58.445
	l32.631-59.562c3.729-6.805,12.269-9.298,19.07-5.57c6.805,3.728,9.299,12.266,5.571,19.07l-36.63,66.86
	C349.379,263.461,344.655,266.259,339.524,266.259z" style="fill:#586270;"/>
	<path d="M238.375,486.527c13.223-1.69,22.574-13.779,20.884-27.002l-15.914-124.552
	c-1.252-9.798-8.346-17.843-17.91-20.312l-50.47-13.03l7.64-107.64c1.173-16.523-11.271-30.867-27.793-32.039l-50.905-3.613
	c-17.43-1.237-32.247,12.654-32.114,30.144l0.926,121.804c0.082,10.79,8.852,19.493,19.641,19.493
	c1.232,0.553,2.512,1.032,3.864,1.381l101.307,26.155l13.842,108.328c1.557,12.186,11.943,21.082,23.912,21.082
	C236.304,486.724,237.337,486.66,238.375,486.527z" style="fill:#24292e;"/>
	<path d="M113.661,457.449c-7.758,0-14.048-6.289-14.048-14.048v-90.219c0-7.758,6.289-14.048,14.048-14.048s14.048,6.289,14.048,14.048v90.219C127.709,451.16,121.419,457.449,113.661,457.449z" style="fill:#a56a43;"/>
	<path d="M172.996,329.369l9.609-135.378c1.173-16.523-11.271-30.867-27.793-32.039l-50.905-3.613c-17.43-1.237-32.247,12.654-32.114,30.144l0.923,121.393c0.082,10.79,8.852,19.493,19.641,19.493h80.639V329.369z" style="fill:#24292e;"/>
	<circle cx="139.799" cy="93.835" r="44.397" style="fill:#586270;"/>
	<path d="M198.856,350.883c0,11.637-9.434,21.073-21.071,21.073H44.482c-10.614,0-19.571-7.895-20.906-18.425
	L0.169,168.685c-1.462-11.545,6.713-22.091,18.258-23.553c11.536-1.464,22.091,6.712,23.553,18.258l21.075,166.42h114.73
	C189.422,329.811,198.856,339.245,198.856,350.883z" style="fill:#a56a43;"/>
	<path d="M172.833,486.724c-3.595,0-7.191-1.372-9.933-4.115l-21.401-21.4H84l-21.4,21.4
	c-5.487,5.485-14.381,5.486-19.867,0s-5.486-14.381-0.001-19.867l25.515-25.514c2.635-2.635,6.208-4.115,9.934-4.115h69.136
	c3.726,0,7.3,1.48,9.933,4.115l25.515,25.515c5.486,5.486,5.486,14.381,0.001,19.867
	C180.024,485.353,176.429,486.724,172.833,486.724z" style="fill:#a56a43;"/>
	<path d="M255.631,86.657c-1.487-2.698-2.992-12.85,4.664-21.551c6.804-8.167,16.32-10.41,22.231-12.568
	c8.078-3.362,9.857-3.955,15.661-9.951c5.111-6.649,5.25-13.638,5.873-17.313c4.432,5.638,6.042,15.168,3.053,22.02
	c-4.16,9.692-10.686,14.096-20.445,17.987c-7.758,2.671-11.328,2.411-19.571,7.223C263.53,74.378,257.848,80.169,255.631,86.657z" style="fill:#cb8252;"/>
	<path d="M234.446,153.358c-3.263,0-6.475-0.887-9.342-2.614c-4.154-2.504-7.084-6.476-8.25-11.185
	c-1.166-4.707-0.429-9.588,2.074-13.742c2.504-4.154,6.476-7.084,11.185-8.25c4.705-1.168,9.588-0.429,13.742,2.074
	c4.154,2.504,7.084,6.476,8.25,11.185c1.166,4.707,0.43,9.588-2.074,13.742c-2.504,4.154-6.476,7.084-11.185,8.25
	C237.387,153.179,235.911,153.358,234.446,153.358z M234.489,129.317c-0.474,0-0.951,0.058-1.422,0.175
	c-1.523,0.377-2.808,1.325-3.617,2.668c-0.81,1.344-1.048,2.922-0.671,4.445h0.001c0.377,1.522,1.324,2.807,2.667,3.616
	c1.344,0.81,2.922,1.05,4.445,0.671c1.523-0.377,2.808-1.325,3.617-2.668c0.81-1.344,1.048-2.922,0.671-4.445
	c-0.378-1.523-1.325-2.807-2.668-3.617C236.584,129.603,235.545,129.317,234.489,129.317z" style="fill:#cb8252;"/>
	<path d="M244.956,158.722l34.967-8.664c2.417-0.599,3.892-3.045,3.293-5.462l-10.028-40.473c-0.599-2.417-3.045-3.892-5.462-3.293l-34.967,8.664c-2.417,0.599-3.892,3.045-3.293,5.462l10.028,40.473C240.092,157.847,242.537,159.321,244.956,158.722z" style="fill:#cb8252;"/>
	<path d="M184.558,245.835c-2.883,0-5.762-0.615-8.44-1.844l-77.904-35.746c-10.159-4.661-14.615-16.675-9.954-26.834c4.661-10.158,16.678-14.614,26.834-9.953l57.596,26.427l21.092-61.315c3.636-10.569,15.146-16.191,25.72-12.554c10.569,3.636,16.189,15.151,12.555,25.72l-28.361,82.445c-1.86,5.404-5.917,9.771-11.17,12.02C189.979,245.291,187.268,245.835,184.558,245.835z" style="fill:#586270;"/>
	<path d="M232.055,149.735c3.636-10.57-1.986-22.085-12.555-25.72c-10.575-3.638-22.086,1.986-25.72,12.554L232.055,149.735z" style="fill:#586270;"/>
	<polygon points="228.814,159.158 190.518,146.053 193.781,136.569 232.055,149.735" style="fill:#24292e"/>
	<path d="M357.561,395.73h-37.039c-9.976,0-18.091-8.116-18.091-18.092v-24.605
	c0-9.977,8.116-18.092,18.091-18.092h37.039c9.977,0,18.092,8.116,18.092,18.092v24.605
	C375.654,387.613,367.537,395.73,357.561,395.73z M320.875,377.285h36.334v-23.902h-36.334V377.285z" style="fill:#586270;"/>
	<path d="M398.603,486.724H278.72c-8.65,0-15.663-7.013-15.663-15.663v-85.092
	c0-8.65,7.013-15.663,15.663-15.663h119.884c8.65,0,15.663,7.013,15.663,15.663v85.092
	C414.267,479.712,407.254,486.724,398.603,486.724z" style="fill:#a56a43;"/>
	<path d="M398.603,370.306h-59.941v116.419h59.941c8.65,0,15.663-7.013,15.663-15.663V385.97
	C414.267,377.319,407.254,370.306,398.603,370.306z" style="fill:#a56a43;"/>
</svg>
