<?xml version="1.0"?>
<svg xmlns="http://www.w3.org/2000/svg" viewBox="0 0 1440 320">
	<path fill="#f0db4f"
		  fill-opacity="1"
		  d="M0,288L21.8,288C43.6,288,87,288,131,256C174.5,224,218,160,262,117.3C305.5,75,349,53,393,37.3C436.4,21,480,11,524,37.3C567.3,64,611,128,655,149.3C698.2,171,742,149,785,165.3C829.1,181,873,235,916,250.7C960,267,1004,245,1047,224C1090.9,203,1135,181,1178,144C1221.8,107,1265,53,1309,42.7C1352.7,32,1396,64,1418,80L1440,96L1440,0L1418.2,0C1396.4,0,1353,0,1309,0C1265.5,0,1222,0,1178,0C1134.5,0,1091,0,1047,0C1003.6,0,960,0,916,0C872.7,0,829,0,785,0C741.8,0,698,0,655,0C610.9,0,567,0,524,0C480,0,436,0,393,0C349.1,0,305,0,262,0C218.2,0,175,0,131,0C87.3,0,44,0,22,0L0,0Z">
	</path>
</svg>
