<?xml version="1.0"?>
<svg xmlns="http://www.w3.org/2000/svg" width="2667" height="815" fill="none">
	<g clip-path="url(#clip0)">
		<path d="M336.07 179.648l1.406-8.171-5.93-5.78c-1.07-1.039-.476-2.852.993-3.063l8.187-1.195 3.664-7.437c.664-1.344 2.562-1.328 3.218 0l3.664 7.437 8.187 1.195c1.469.211 2.063 2.024 1 3.063l-5.929 5.78 1.398 8.171c.25 1.477-1.296 2.578-2.601 1.891l-7.328-3.858-7.328 3.858c-1.297.696-2.851-.414-2.601-1.891zM347.952 378.955l-2.812 16.341c-.501 2.954 2.607 5.173 5.202 3.782l14.656-7.717 14.656 7.717c2.609 1.374 5.703-.828 5.202-3.782l-2.795-16.341 11.857-11.562c2.127-2.077.938-5.702-1.999-6.125l-16.374-2.39-7.329-14.874c-1.311-2.656-5.108-2.688-6.436 0l-7.329 14.874-16.374 2.39c-2.937.423-4.126 4.048-1.985 6.125l11.86 11.562zM2486.95 448.955l-2.81 16.341c-.5 2.954 2.61 5.173 5.2 3.782l14.66-7.717 14.65 7.717c2.61 1.374 5.71-.828 5.21-3.782l-2.8-16.341 11.86-11.562c2.12-2.077.94-5.702-2-6.125l-16.38-2.39-7.32-14.874c-1.32-2.656-5.11-2.688-6.44 0l-7.33 14.874-16.37 2.39c-2.94.423-4.13 4.048-1.99 6.125l11.86 11.562zM797.07 369.648l1.406-8.171-5.93-5.78c-1.07-1.039-.476-2.852.993-3.063l8.187-1.195 3.664-7.437c.664-1.344 2.562-1.328 3.218 0l3.664 7.437 8.187 1.195c1.469.211 2.063 2.024 1 3.063l-5.929 5.78 1.398 8.171c.25 1.477-1.296 2.578-2.601 1.891l-7.328-3.858-7.328 3.858c-1.297.696-2.851-.414-2.601-1.891zM223.476 454.477l-1.406 8.171c-.25 1.477 1.304 2.587 2.601 1.891l7.328-3.858 7.328 3.858c1.305.687 2.851-.414 2.601-1.891l-1.398-8.171 5.929-5.78c1.063-1.039.469-2.852-1-3.063l-8.187-1.195-3.664-7.437c-.656-1.328-2.554-1.344-3.218 0l-3.664 7.437-8.187 1.195c-1.469.211-2.063 2.024-.993 3.063l5.93 5.78zM1849.48 218.477l-1.41 8.171c-.25 1.477 1.3 2.587 2.6 1.891l7.33-3.858 7.33 3.858c1.3.687 2.85-.414 2.6-1.891l-1.4-8.171 5.93-5.78c1.06-1.039.47-2.852-1-3.063l-8.19-1.195-3.66-7.437c-.66-1.328-2.56-1.344-3.22 0l-3.66 7.437-8.19 1.195c-1.47.211-2.06 2.024-.99 3.063l5.93 5.78zM2404.07 296.648l1.41-8.171-5.93-5.78c-1.07-1.039-.48-2.852.99-3.063l8.19-1.195 3.66-7.437c.66-1.344 2.56-1.328 3.22 0l3.66 7.437 8.19 1.195c1.47.211 2.06 2.024 1 3.063l-5.93 5.78 1.4 8.171c.25 1.477-1.3 2.578-2.6 1.891l-7.33-3.858-7.33 3.858c-1.3.696-2.85-.414-2.6-1.891zM1842.48 578.477l-1.41 8.171c-.25 1.477 1.3 2.587 2.6 1.891l7.33-3.858 7.33 3.858c1.3.687 2.85-.414 2.6-1.891l-1.4-8.171 5.93-5.78c1.06-1.039.47-2.852-1-3.063l-8.19-1.195-3.66-7.437c-.66-1.328-2.56-1.344-3.22 0l-3.66 7.437-8.19 1.195c-1.47.211-2.06 2.024-.99 3.063l5.93 5.78zM2096.07 186.648l1.41-8.171-5.93-5.78c-1.07-1.039-.48-2.852.99-3.063l8.19-1.195 3.66-7.437c.66-1.344 2.56-1.328 3.22 0l3.66 7.437 8.19 1.195c1.47.211 2.06 2.024 1 3.063l-5.93 5.78 1.4 8.171c.25 1.477-1.3 2.578-2.6 1.891l-7.33-3.858-7.33 3.858c-1.3.696-2.85-.414-2.6-1.891zM1866.36 350.668a5.988 5.988 0 0 0 0 8.486 5.994 5.994 0 0 0 8.48 0 6.007 6.007 0 0 0 0-8.486 5.994 5.994 0 0 0-8.48 0z" fill="#6fb98f"/>
		<path fill-rule="evenodd" clip-rule="evenodd" d="M884.422 0 32-32h42.5zM1590.22 803h-4.01v-94c0-3.314-2.69-6-6.01-6h-2.01v-4c0-2.209-1.8-4-4.01-4h-24.05v-4c0-2.209-1.8-4-4.01-4a4.002 4.002 0 0 0-4.01 4v4h-24.06a4.002 4.002 0 0 0-4.01 4v4h-2.01a6.004 6.004 0 0 0-6.01 6v94h-4.01a4.008 4.008 0 0 0-4.01 4v4c0 2.209 1.8 4 4.01 4h88.21c2.22 0 4.01-1.791 4.01-4v-4c0-2.209-1.79-4-4.01-4zm-50.12-84c1.11 0 2.01.896 2.01 2v6h-8.02v-8h6.01zm-16.04 0h6.02v8h-8.02v-6c0-1.104.9-2 2-2zm0 20c-1.1 0-2-.895-2-2v-6h8.02v8h-6.02zm18.05 26c0 1.105-.9 2-2.01 2h-16.04c-1.1 0-2-.895-2-2v-16c0-1.104.9-2 2-2h16.04c1.11 0 2.01.896 2.01 2v16zm-2.01-26h-6.01v-8h8.02v6c0 1.105-.9 2-2.01 2zm28.07-20c1.11 0 2.01.896 2.01 2v6h-8.02v-8h6.01zm-16.04 0h6.02v8h-8.02v-6c0-1.104.89-2 2-2zm-2 18v-6h8.02v8h-6.02c-1.11 0-2-.895-2-2zm18.04 2h-6.01v-8h8.02v6c0 1.105-.9 2-2.01 2z" fill="#087F5B"/>
		<path fill-rule="evenodd" clip-rule="evenodd" d="M1712.78 825c-8.15 0-12.37-9.562-7.03-15.75l25.31-29.25h-10.12c-7.31 0-11.25-8.156-6.47-13.5l26.72-31.5h-12.66c-6.19 0-9.28-6.187-5.62-10.406l37.97-41.063c2.81-3.093 8.15-3.093 10.96 0l20.52 22.188 20.52-22.188c2.81-3.093 8.15-3.093 10.96 0l37.97 41.063c3.66 4.219.57 10.406-5.62 10.406h-12.38l26.72 31.5c4.5 5.344.56 13.5-6.75 13.5h-10.12l25.31 29.25c5.34 6.188 1.12 15.75-7.03 15.75h-159.16zm79.03-90l.69.811.69-.811h-1.38z" fill="#087F5B"/>
	</g>
	<defs>
		<clipPath id="clip0">
			<path fill="#fff" d="M0 0h2667v815H0z"/>
		</clipPath>
	</defs>
</svg>
