<?xml version="1.0"?>
<svg xmlns="http://www.w3.org/2000/svg" width="2667" height="815" fill="none">
	<g clip-path="url(#clip0)">
		<path d="M336.07 179.648l1.406-8.171-5.93-5.78c-1.07-1.039-.476-2.852.993-3.063l8.187-1.195 3.664-7.437c.664-1.344 2.562-1.328 3.218 0l3.664 7.437 8.187 1.195c1.469.211 2.063 2.024 1 3.063l-5.929 5.78 1.398 8.171c.25 1.477-1.296 2.578-2.601 1.891l-7.328-3.858-7.328 3.858c-1.297.696-2.851-.414-2.601-1.891zM347.952 378.955l-2.812 16.341c-.501 2.954 2.607 5.173 5.202 3.782l14.656-7.717 14.656 7.717c2.609 1.374 5.703-.828 5.202-3.782l-2.795-16.341 11.857-11.562c2.127-2.077.938-5.702-1.999-6.125l-16.374-2.39-7.329-14.874c-1.311-2.656-5.108-2.688-6.436 0l-7.329 14.874-16.374 2.39c-2.937.423-4.126 4.048-1.985 6.125l11.86 11.562zM2486.95 448.955l-2.81 16.341c-.5 2.954 2.61 5.173 5.2 3.782l14.66-7.717 14.65 7.717c2.61 1.374 5.71-.828 5.21-3.782l-2.8-16.341 11.86-11.562c2.12-2.077.94-5.702-2-6.125l-16.38-2.39-7.32-14.874c-1.32-2.656-5.11-2.688-6.44 0l-7.33 14.874-16.37 2.39c-2.94.423-4.13 4.048-1.99 6.125l11.86 11.562zM797.07 369.648l1.406-8.171-5.93-5.78c-1.07-1.039-.476-2.852.993-3.063l8.187-1.195 3.664-7.437c.664-1.344 2.562-1.328 3.218 0l3.664 7.437 8.187 1.195c1.469.211 2.063 2.024 1 3.063l-5.929 5.78 1.398 8.171c.25 1.477-1.296 2.578-2.601 1.891l-7.328-3.858-7.328 3.858c-1.297.696-2.851-.414-2.601-1.891zM223.476 454.477l-1.406 8.171c-.25 1.477 1.304 2.587 2.601 1.891l7.328-3.858 7.328 3.858c1.305.687 2.851-.414 2.601-1.891l-1.398-8.171 5.929-5.78c1.063-1.039.469-2.852-1-3.063l-8.187-1.195-3.664-7.437c-.656-1.328-2.554-1.344-3.218 0l-3.664 7.437-8.187 1.195c-1.469.211-2.063 2.024-.993 3.063l5.93 5.78zM1849.48 218.477l-1.41 8.171c-.25 1.477 1.3 2.587 2.6 1.891l7.33-3.858 7.33 3.858c1.3.687 2.85-.414 2.6-1.891l-1.4-8.171 5.93-5.78c1.06-1.039.47-2.852-1-3.063l-8.19-1.195-3.66-7.437c-.66-1.328-2.56-1.344-3.22 0l-3.66 7.437-8.19 1.195c-1.47.211-2.06 2.024-.99 3.063l5.93 5.78zM2404.07 296.648l1.41-8.171-5.93-5.78c-1.07-1.039-.48-2.852.99-3.063l8.19-1.195 3.66-7.437c.66-1.344 2.56-1.328 3.22 0l3.66 7.437 8.19 1.195c1.47.211 2.06 2.024 1 3.063l-5.93 5.78 1.4 8.171c.25 1.477-1.3 2.578-2.6 1.891l-7.33-3.858-7.33 3.858c-1.3.696-2.85-.414-2.6-1.891zM1842.48 578.477l-1.41 8.171c-.25 1.477 1.3 2.587 2.6 1.891l7.33-3.858 7.33 3.858c1.3.687 2.85-.414 2.6-1.891l-1.4-8.171 5.93-5.78c1.06-1.039.47-2.852-1-3.063l-8.19-1.195-3.66-7.437c-.66-1.328-2.56-1.344-3.22 0l-3.66 7.437-8.19 1.195c-1.47.211-2.06 2.024-.99 3.063l5.93 5.78zM2096.07 186.648l1.41-8.171-5.93-5.78c-1.07-1.039-.48-2.852.99-3.063l8.19-1.195 3.66-7.437c.66-1.344 2.56-1.328 3.22 0l3.66 7.437 8.19 1.195c1.47.211 2.06 2.024 1 3.063l-5.93 5.78 1.4 8.171c.25 1.477-1.3 2.578-2.6 1.891l-7.33-3.858-7.33 3.858c-1.3.696-2.85-.414-2.6-1.891zM1866.36 350.668a5.988 5.988 0 0 0 0 8.486 5.994 5.994 0 0 0 8.48 0 6.007 6.007 0 0 0 0-8.486 5.994 5.994 0 0 0-8.48 0z" fill="#6fb98f"/>
	</g>
	<defs>
		<clipPath id="clip0">
			<path fill="#fff" d="M0 0h2667v815H0z"/>
		</clipPath>
	</defs>
</svg>
