<svg height="478pt" viewBox="-61 0 478 478" width="478pt" xmlns="http://www.w3.org/2000/svg">
	<path d="m349.738281 111.398438v325.132812c0 19.421875-15.746093 35.164062-35.167969 35.167969h-273.140624c-19.421876-.003907-35.167969-15.746094-35.167969-35.167969v-395.0625c0-19.421875 15.746093-35.164062 35.167969-35.167969h206.289062l.070312.078125-.070312.070313v85.839843c-.003906 10.554688 8.546875 19.109376 19.101562 19.109376zm-102.527343 194.273437v-31.171875c0-18.144531-14.707032-32.855469-32.851563-32.859375h-16.917969v-9.121094c4.371094-3.238281 8.480469-6.816406 12.289063-10.699219 8.460937-8.441406 15.898437-18.230468 20.539062-29.308593 5.550781-13.242188 6.191407-27.832031.78125-41.242188-3.199219-7.910156-10.039062-15.710937-19.601562-13.441406l-.277344-.816406c-3.601563-8.863281-10.238281-16.152344-18.722656-20.570313-8.960938-4.484375-19.304688-5.351562-28.890625-2.429687-15.597656 4.507812-29.277344 15.027343-36.578125 29.667969-4.167969 8.472656-6.136719 17.859374-5.71875 27.289062 1.019531 24.542969 15.039062 48.460938 37.058593 59.730469v10.941406h-16.679687c-18.144531.003906-32.851563 14.714844-32.851563 32.859375v31.171875zm0 0" fill="#ffffff"/>
	<path d="m247.789062 6.378906 101.949219 105.019532h-82.917969c-10.554687 0-19.105468-8.554688-19.101562-19.109376v-85.839843zm0 0" fill="#6fb98f"/>
	<path d="m247.210938 274.5v31.171875h-138.421876v-31.171875c0-18.144531 14.707032-32.855469 32.851563-32.859375h16.679687v.621094c0 10.800781 8.757813 19.558593 19.558594 19.558593 10.804688 0 19.5625-8.757812 19.5625-19.558593v-.621094h16.917969c18.144531.003906 32.851563 14.714844 32.851563 32.859375zm0 0" fill="#6fb98f"/>
	<path d="m231.050781 151.269531c5.410157 13.410157 4.769531 28-.78125 41.242188-4.640625 11.078125-12.078125 20.867187-20.539062 29.308593-3.808594 3.882813-7.917969 7.460938-12.289063 10.699219v-7.648437c12.207032-7.179688 19.699219-20.289063 19.6875-34.449219v-16.101563l.0625-3.800781c.195313-9.09375-4.238281-17.667969-11.769531-22.769531-2.980469-2.019531-6.378906-3.339844-9.941406-3.859375-19.460938 35.621094-54.429688 39.039063-55.800781 39.160156h-.078126c-.535156 0-.972656.433594-.972656.96875v6.902344c-.003906 14.050781 7.507813 27.035156 19.691406 34.039063v5.738281c-22.019531-11.269531-36.039062-35.1875-37.058593-59.730469-.417969-9.429688 1.550781-18.816406 5.71875-27.289062 7.300781-14.640626 20.980469-25.160157 36.578125-29.667969 9.585937-2.921875 19.929687-2.054688 28.890625 2.429687 8.484375 4.417969 15.121093 11.707032 18.722656 20.570313l.277344.816406c9.5625-2.269531 16.402343 5.53125 19.601562 13.441406zm0 0" fill="#4b5d63"/>
	<path d="m158.320312 224.960938c-12.183593-7.003907-19.695312-19.988282-19.691406-34.039063v-6.902344c0-.535156.4375-.96875.972656-.96875h.078126c1.371093-.121093 36.339843-3.539062 55.800781-39.160156 3.5625.519531 6.960937 1.839844 9.941406 3.859375 7.53125 5.101562 11.964844 13.675781 11.769531 22.769531l-.0625 3.800781v16.101563c.011719 14.160156-7.480468 27.269531-19.6875 34.449219-5.84375 3.429687-12.488281 5.257812-19.261718 5.300781-6.964844.058594-13.820313-1.738281-19.859376-5.210937zm0 0" fill="#f7caa5"/>
	<path d="m197.441406 241.640625v.621094c0 10.800781-8.757812 19.558593-19.5625 19.558593-10.800781 0-19.558594-8.757812-19.558594-19.558593v-17.300781c6.039063 3.472656 12.894532 5.269531 19.859376 5.210937 6.773437-.042969 13.417968-1.871094 19.261718-5.300781zm0 0" fill="#edb288"/>
	<g fill="#083863">
		<path d="m252.199219 2.160156c-1.121094-1.316406-2.75-2.1015622-4.480469-2.160156h-206.289062c-22.835938.148438-41.304688 18.632812-41.429688 41.46875v395.0625c.125 22.835938 18.59375 41.320312 41.429688 41.46875h273.140624c22.835938-.148438 41.304688-18.632812 41.429688-41.46875v-325.132812c-.046875-1.597657-.699219-3.117188-1.824219-4.253907zm1.800781 18.941406 81.554688 83.898438h-68.734376c-3.402343.074219-6.691406-1.238281-9.109374-3.632812-2.417969-2.398438-3.757813-5.671876-3.710938-9.078126zm60.570312 444.898438h-273.140624c-16.210938-.140625-29.3125-13.257812-29.429688-29.46875v-395.0625c.117188-16.210938 13.21875-29.328125 29.429688-29.46875h200.570312v80.289062c-.042969 6.585938 2.5625 12.914063 7.230469 17.558594 4.667969 4.644532 11.003906 7.222656 17.589843 7.152344h77.179688v319.53125c-.117188 16.210938-13.21875 29.328125-29.429688 29.46875zm0 0"/>
		<path d="m285.011719 395h-219.910157c-3.316406 0-6 2.6875-6 6s2.683594 6 6 6h219.910157c3.3125 0 6-2.6875 6-6s-2.6875-6-6-6zm0 0"/>
		<path d="m65.101562 356h131.660157c3.3125 0 6-2.6875 6-6s-2.6875-6-6-6h-131.660157c-3.316406 0-6 2.6875-6 6s2.683594 6 6 6zm0 0"/>
		<path d="m108.789062 312h138.421876c3.3125 0 5.789062-3.015625 5.789062-6.328125v-31.171875c.023438-10.242188-4.046875-20.070312-11.300781-27.296875-7.253907-7.230469-17.097657-11.261719-27.339844-11.203125h-11.359375v-.5c4-2.640625 7.058594-5.742188 10.746094-9.433594 9.980468-9.953125 17.4375-20.464844 21.949218-31.238281 6.335938-15.121094 6.679688-31.386719.863282-45.808594-4.402344-10.878906-12.445313-17.335937-21.382813-17.570312-9.613281-19.816407-32.234375-29.664063-53.289062-23.203125-17.785157 5.144531-32.464844 17.082031-40.28125 32.761718-4.664063 9.367188-6.902344 19.757813-6.5 30.214844 1.085937 26.121094 15.898437 50.4375 36.898437 63.019532v1.757812h-10.363281c-10.242187-.058594-20.085937 3.972656-27.339844 11.203125-7.253906 7.226563-11.324219 17.054687-11.300781 27.296875v31.171875c0 3.3125 2.476562 6.328125 5.789062 6.328125zm102.210938-137.679688v16.101563c.019531 12.015625-6.3125 23.148437-16.65625 29.269531-10.140625 5.949219-22.695312 5.972656-32.859375.070313-10.257813-5.976563-16.542969-16.972657-16.484375-28.839844v-2.566406c22.265625-4.605469 41.648438-18.183594 53.578125-37.539063 1.273437.507813 2.484375 1.15625 3.613281 1.929688 5.820313 3.96875 9.207032 10.636718 8.980469 17.679687zm-47 67.320313v-7.566406c4.523438 1.285156 9.203125 1.933593 13.90625 1.925781h.316406c4.335938.050781 8.65625-.609375 12.777344-1.957031v8.21875c.046875 3.570312-1.335938 7.015625-3.839844 9.5625-2.507812 2.550781-5.925781 3.992187-9.5 4.003906-7.511718.007813-13.617187-6.058594-13.660156-13.566406zm48.835938-97.972656c7.535156-1.785157 11.859374 7.894531 12.648437 9.847656 4.625 11.464844 4.359375 24.488281-.75 36.675781-.535156 1.285156-1.195313 2.570313-1.828125 3.847656.09375-1.199218.09375-2.40625.09375-3.617187v-16l.125-3.8125c.246094-10.605469-4.675781-20.671875-13.199219-26.988281.953125.25 1.949219.265625 2.910157.046875zm-80.484376 2.6875c6.320313-12.679688 18.304688-22.371094 32.875-26.582031 8.121094-2.515626 16.898438-1.792969 24.5 2.015624 7.167969 3.730469 12.78125 9.886719 15.832032 17.367188l.210937.613281c.226563.644531.558594 1.246094.988281 1.777344-3.230468-1.84375-6.773437-3.0625-10.453124-3.601563-2.472657-.34375-4.902344.875-6.097657 3.066407-17.40625 31.859375-47.707031 35.738281-50.679687 36.042969-3.710938.160156-6.609375 3.253906-6.527344 6.964843v6.902344c0 1.234375-.117188 2.464844-.015625 3.6875-3.339844-7.542969-5.25-15.640625-5.636719-23.882813-.40625-8.414062 1.316406-16.792968 5.003906-24.371093zm-17.351562 128.144531c-.027344-7.0625 2.777344-13.839844 7.78125-18.816406 5.007812-4.980469 11.796875-7.746094 18.859375-7.683594h11.242187c1.207032 4.695312 3.589844 9.003906 6.925782 12.523438 4.773437 4.832031 11.277344 7.5625 18.070312 7.578124 12.25 0 22.515625-9.101562 24.992188-20.101562h11.488281c7.0625-.0625 13.851563 2.703125 18.859375 7.683594 5.003906 4.976562 7.808594 11.753906 7.78125 18.816406v25.5h-126zm0 0"/>
	</g>
</svg>
